{
    "accessors": [
        {
            "bufferView": 0,
            "componentType": 5125,
            "count": 342,
            "max": [
                115.0
            ],
            "min": [
                0.0
            ],
            "name": "mesh0_idx_accessor",
            "type": "SCALAR"
        },
        {
            "bufferView": 1,
            "componentType": 5126,
            "count": 116,
            "max": [
                0.026845436543226242,
                0.03070693463087082,
                0.004100000020116568
            ],
            "min": [
                -0.02005208469927311,
                -0.025399306789040565,
                0.0
            ],
            "name": "mesh0_coord_accessor",
            "type": "VEC3"
        },
        {
            "bufferView": 2,
            "componentType": 5126,
            "count": 116,
            "max": [
                0.30000507831573486,
                0.5551073551177979,
                6.123234262925839e-17
            ],
            "min": [
                -0.9998605847358704,
                -0.9999977946281433,
                6.123234262925839e-17
            ],
            "name": "mesh0_norm_accessor",
            "type": "VEC3"
        },
        {
            "bufferView": 3,
            "componentType": 5125,
            "count": 558,
            "max": [
                187.0
            ],
            "min": [
                0.0
            ],
            "name": "mesh1_idx_accessor",
            "type": "SCALAR"
        },
        {
            "bufferView": 4,
            "componentType": 5126,
            "count": 188,
            "max": [
                0.05160234868526459,
                0.04972538724541664,
                0.004100000020116568
            ],
            "min": [
                -0.02005208469927311,
                -0.025399306789040565,
                0.0
            ],
            "name": "mesh1_coord_accessor",
            "type": "VEC3"
        },
        {
            "bufferView": 5,
            "componentType": 5126,
            "count": 188,
            "max": [
                0.9999331831932068,
                0.9999527335166931,
                6.123234262925839e-17
            ],
            "min": [
                -0.8908771276473999,
                -0.9824304580688477,
                6.123234262925839e-17
            ],
            "name": "mesh1_norm_accessor",
            "type": "VEC3"
        },
        {
            "bufferView": 6,
            "componentType": 5125,
            "count": 444,
            "max": [
                149.0
            ],
            "min": [
                0.0
            ],
            "name": "mesh2_idx_accessor",
            "type": "SCALAR"
        },
        {
            "bufferView": 7,
            "componentType": 5126,
            "count": 150,
            "max": [
                0.05160234868526459,
                0.04972538724541664,
                0.004100000020116568
            ],
            "min": [
                -0.02005208469927311,
                -0.025399306789040565,
                0.004100000020116568
            ],
            "name": "mesh2_coord_accessor",
            "type": "VEC3"
        },
        {
            "bufferView": 8,
            "componentType": 5126,
            "count": 150,
            "max": [
                0.0,
                0.0,
                1.0
            ],
            "min": [
                0.0,
                0.0,
                1.0
            ],
            "name": "mesh2_norm_accessor",
            "type": "VEC3"
        },
        {
            "bufferView": 9,
            "componentType": 5125,
            "count": 444,
            "max": [
                149.0
            ],
            "min": [
                0.0
            ],
            "name": "mesh3_idx_accessor",
            "type": "SCALAR"
        },
        {
            "bufferView": 10,
            "componentType": 5126,
            "count": 150,
            "max": [
                0.05160234868526459,
                0.04972538724541664,
                0.0
            ],
            "min": [
                -0.02005208469927311,
                -0.025399306789040565,
                0.0
            ],
            "name": "mesh3_coord_accessor",
            "type": "VEC3"
        },
        {
            "bufferView": 11,
            "componentType": 5126,
            "count": 150,
            "max": [
                1.2246468525851679e-16,
                0.0,
                -1.0
            ],
            "min": [
                1.2246468525851679e-16,
                0.0,
                -1.0
            ],
            "name": "mesh3_norm_accessor",
            "type": "VEC3"
        }
    ],
    "asset": {
        "version": "2.0"
    },
    "bufferViews": [
        {
            "buffer": 0,
            "byteLength": 1368,
            "name": "mesh0_idx_bufferView",
            "target": 34963
        },
        {
            "buffer": 1,
            "byteLength": 1392,
            "name": "mesh0_coord_bufferView",
            "target": 34962
        },
        {
            "buffer": 2,
            "byteLength": 1392,
            "name": "mesh0_norm_bufferView",
            "target": 34962
        },
        {
            "buffer": 3,
            "byteLength": 2232,
            "name": "mesh1_idx_bufferView",
            "target": 34963
        },
        {
            "buffer": 4,
            "byteLength": 2256,
            "name": "mesh1_coord_bufferView",
            "target": 34962
        },
        {
            "buffer": 5,
            "byteLength": 2256,
            "name": "mesh1_norm_bufferView",
            "target": 34962
        },
        {
            "buffer": 6,
            "byteLength": 1776,
            "name": "mesh2_idx_bufferView",
            "target": 34963
        },
        {
            "buffer": 7,
            "byteLength": 1800,
            "name": "mesh2_coord_bufferView",
            "target": 34962
        },
        {
            "buffer": 8,
            "byteLength": 1800,
            "name": "mesh2_norm_bufferView",
            "target": 34962
        },
        {
            "buffer": 9,
            "byteLength": 1776,
            "name": "mesh3_idx_bufferView",
            "target": 34963
        },
        {
            "buffer": 10,
            "byteLength": 1800,
            "name": "mesh3_coord_bufferView",
            "target": 34962
        },
        {
            "buffer": 11,
            "byteLength": 1800,
            "name": "mesh3_norm_bufferView",
            "target": 34962
        }
    ],
    "buffers": [
        {
            "byteLength": 1368,
            "name": "mesh0_idx_buffer",
            "uri": "data:application/octet-stream;base64,"
        },
        {
            "byteLength": 1392,
            "name": "mesh0_coord_buffer",
            "uri": "data:application/octet-stream;base64,"
        },
        {
            "byteLength": 1392,
            "name": "mesh0_norm_buffer",
            "uri": "data:application/octet-stream;base64,"
        },
        {
            "byteLength": 2232,
            "name": "mesh1_idx_buffer",
            "uri": "data:application/octet-stream;base64,"
        },
        {
            "byteLength": 2256,
            "name": "mesh1_coord_buffer",
            "uri": "data:application/octet-stream;base64,"
        },
        {
            "byteLength": 2256,
            "name": "mesh1_norm_buffer",
            "uri": "data:application/octet-stream;base64,"
        },
        {
            "byteLength": 1776,
            "name": "mesh2_idx_buffer",
            "uri": "data:application/octet-stream;base64,"
        },
        {
            "byteLength": 1800,
            "name": "mesh2_coord_buffer",
            "uri": "data:application/octet-stream;base64,"
        },
        {
            "byteLength": 1800,
            "name": "mesh2_norm_buffer",
            "uri": "data:application/octet-stream;base64,"
        },
        {
            "byteLength": 1776,
            "name": "mesh3_idx_buffer",
            "uri": "data:application/octet-stream;base64,"
        },
        {
            "byteLength": 1800,
            "name": "mesh3_coord_buffer",
            "uri": "data:application/octet-stream;base64,"
        },
        {
            "byteLength": 1800,
            "name": "mesh3_norm_buffer",
            "uri": "data:application/octet-stream;base64,"
        }
    ],
    "materials": [
        {
            "doubleSided": true,
            "name": "0.615686_0.811765_0.929412_0.000000",
            "pbrMetallicRoughness": {
                "baseColorFactor": [
                    0.615686297416687,
                    0.8117647171020508,
                    0.929411768913269,
                    1.0
                ],
                "metallicFactor": 0.0
            }
        }
    ],
    "meshes": [
        {
            "name": "mesh0_mesh",
            "primitives": [
                {
                    "attributes": {
                        "NORMAL": 2,
                        "POSITION": 1
                    },
                    "indices": 0,
                    "material": 0
                }
            ]
        },
        {
            "name": "mesh1_mesh",
            "primitives": [
                {
                    "attributes": {
                        "NORMAL": 5,
                        "POSITION": 4
                    },
                    "indices": 3,
                    "material": 0
                }
            ]
        },
        {
            "name": "mesh2_mesh",
            "primitives": [
                {
                    "attributes": {
                        "NORMAL": 8,
                        "POSITION": 7
                    },
                    "indices": 6,
                    "material": 0
                }
            ]
        },
        {
            "name": "mesh3_mesh",
            "primitives": [
                {
                    "attributes": {
                        "NORMAL": 11,
                        "POSITION": 10
                    },
                    "indices": 9,
                    "material": 0
                }
            ]
        }
    ],
    "nodes": [
        {
            "children": [
                1
            ]
        },
        {
            "children": [
                2,
                4,
                6,
                8
            ]
        },
        {
            "children": [
                3
            ]
        },
        {
            "mesh": 0,
            "name": "mesh0_meshnode_0"
        },
        {
            "children": [
                5
            ]
        },
        {
            "mesh": 1,
            "name": "mesh1_meshnode_1"
        },
        {
            "children": [
                7
            ]
        },
        {
            "mesh": 2,
            "name": "mesh2_meshnode_2"
        },
        {
            "children": [
                9
            ]
        },
        {
            "mesh": 3,
            "name": "mesh3_meshnode_3"
        }
    ],
    "scene": 0,
    "scenes": [
        {
            "name": "Root",
            "nodes": [
                0
            ]
        }
    ]
}